<svg width="13" height="13" fill="none" xmlns="http://www.w3.org/2000/svg"><path d="M12.748 10.337l-1.441-.96-1.282-.855a.567.567 0 00-.762.124l-.792 1.02a.565.565 0 01-.721.149c-.538-.3-1.174-.581-2.578-1.987-1.403-1.405-1.687-2.04-1.986-2.577a.565.565 0 01.15-.721l1.018-.793a.568.568 0 00.124-.762L3.65 1.733 2.663.253A.568.568 0 001.9.08L.761.764a1.39 1.39 0 00-.632.817C-.182 2.716-.245 5.22 3.768 9.233c4.013 4.012 6.516 3.95 7.651 3.638a1.39 1.39 0 00.818-.632l.683-1.138a.567.567 0 00-.172-.764zm-5.352-8.32a3.815 3.815 0 013.81 3.81.224.224 0 00.449 0A4.263 4.263 0 007.396 1.57a.224.224 0 000 .448z" fill="#C3C3C3"/><path d="M7.396 3.362a2.468 2.468 0 012.466 2.465.224.224 0 00.448 0 2.917 2.917 0 00-2.914-2.913.224.224 0 100 .448z" fill="#C3C3C3"/><path d="M7.396 4.707c.62 0 1.12.502 1.121 1.12a.224.224 0 00.448 0A1.57 1.57 0 007.396 4.26a.224.224 0 000 .448z" fill="#C3C3C3"/></svg>