<svg width="13" height="13" viewBox="0 0 13 13" fill="none" xmlns="http://www.w3.org/2000/svg">
<g clip-path="url(#clip0)">
<path d="M12.7477 10.3371L11.3065 9.37622L10.0253 8.52226C9.77809 8.35776 9.44581 8.41169 9.26327 8.64599L8.47051 9.66513C8.30022 9.88628 7.99388 9.94984 7.74968 9.81463C7.21176 9.51541 6.57566 9.23368 5.17213 7.82835C3.7686 6.42302 3.48507 5.78872 3.18584 5.2508C3.05064 5.00659 3.11419 4.70026 3.33534 4.52999L4.35449 3.73723C4.58876 3.55472 4.64272 3.22244 4.47821 2.97516L3.65049 1.73345L2.66339 0.252787C2.49538 0.000762236 2.15906 -0.074901 1.89932 0.0808687L0.760916 0.763818C0.453262 0.945079 0.22711 1.23778 0.129306 1.58123C-0.182004 2.71626 -0.244769 5.22007 3.76792 9.23276C7.78061 13.2454 10.2842 13.1825 11.4192 12.8711C11.7627 12.7734 12.0554 12.5472 12.2366 12.2395L12.9196 11.1012C13.0754 10.8414 12.9997 10.5051 12.7477 10.3371Z" fill="#C3C3C3"/>
<path d="M7.39642 2.01711C9.49981 2.01945 11.2044 3.724 11.2067 5.82742C11.2067 5.95119 11.3071 6.05156 11.4309 6.05156C11.5546 6.05156 11.655 5.95122 11.655 5.82742C11.6524 3.47655 9.74731 1.57144 7.39645 1.56885C7.27267 1.56885 7.1723 1.66919 7.1723 1.79299C7.17228 1.91675 7.27262 2.01711 7.39642 2.01711Z" fill="#C3C3C3"/>
<path d="M7.39645 3.36187C8.75745 3.36347 9.86032 4.46637 9.86192 5.82734C9.86192 5.95112 9.96227 6.05149 10.0861 6.05149C10.2098 6.05149 10.3102 5.95115 10.3102 5.82734C10.3084 4.21889 9.00492 2.91543 7.39645 2.91357C7.27267 2.91357 7.1723 3.01392 7.1723 3.13772C7.1723 3.26152 7.27264 3.36187 7.39645 3.36187Z" fill="#C3C3C3"/>
<path d="M7.39642 4.70706C8.01506 4.70779 8.51636 5.2091 8.5171 5.82773C8.5171 5.95151 8.61744 6.05188 8.74125 6.05188C8.86502 6.05188 8.96539 5.95154 8.96539 5.82773C8.9644 4.96164 8.26254 4.25978 7.39645 4.25879C7.27267 4.25879 7.1723 4.35913 7.1723 4.48293C7.17228 4.60671 7.27262 4.70706 7.39642 4.70706Z" fill="#C3C3C3"/>
</g>
<defs>
<clipPath id="clip0">
<rect width="13" height="13" fill="white"/>
</clipPath>
</defs>
</svg>
