<svg width="18" height="18" viewBox="0 0 18 18" fill="none" xmlns="http://www.w3.org/2000/svg">
<path d="M10.2297 9.36252C9.88655 9.02878 9.43325 8.85184 8.95453 8.86548C8.04022 8.89083 7.29076 9.62595 7.24822 10.5391C7.22284 11.0847 7.45519 11.6154 7.8713 11.9666V13.2056C7.8713 13.8302 8.37948 14.3384 9.0041 14.3384C9.62872 14.3384 10.1369 13.8302 10.1369 13.2056V11.9666C10.5346 11.6314 10.7619 11.1437 10.7619 10.6226C10.7619 10.1439 10.5729 9.6964 10.2297 9.36252ZM9.6662 11.4435C9.51851 11.5628 9.43378 11.741 9.43378 11.9325V13.2056C9.43378 13.4425 9.24102 13.6353 9.0041 13.6353C8.76718 13.6353 8.57442 13.4425 8.57442 13.2056V11.9325C8.57442 11.741 8.48976 11.5628 8.34214 11.4436C8.34214 11.4436 8.34214 11.4436 8.34214 11.4436C8.07749 11.2299 7.93475 10.9121 7.95061 10.5718C7.9761 10.0243 8.4256 9.58355 8.97394 9.56836C8.98403 9.56808 8.99408 9.56794 9.00413 9.56794C9.28067 9.56794 9.54079 9.67334 9.73943 9.86652C9.94537 10.0669 10.0588 10.3354 10.0588 10.6226C10.0588 10.9428 9.91566 11.242 9.6662 11.4435Z" fill="#C3C3C3"/>
<path d="M13.5744 7.12853V4.57031C13.5744 2.05021 11.5242 0 9.00409 0C6.48402 0 4.43378 2.05021 4.43378 4.57031V7.12399C3.57663 8.00002 2.98182 9.11036 2.73584 10.3115C2.69688 10.5017 2.81951 10.6875 3.00974 10.7265C3.20007 10.7654 3.38573 10.6428 3.42469 10.4525C3.96412 7.81826 6.31063 5.90625 9.00409 5.90625C12.1445 5.90625 14.6994 8.46116 14.6994 11.6016C14.6994 14.742 12.1445 17.2969 9.00409 17.2969C6.31021 17.2969 3.96363 15.3845 3.42451 12.7497C3.38559 12.5595 3.2 12.4368 3.0096 12.4758C2.81937 12.5147 2.69674 12.7005 2.73566 12.8907C3.02682 14.3136 3.8075 15.6092 4.93394 16.5388C6.07571 17.4811 7.5212 18 9.00409 18C12.5322 18 15.4025 15.1297 15.4025 11.6016C15.4025 9.86217 14.7046 8.28299 13.5744 7.12853ZM11.1838 5.58566C10.5032 5.3383 9.76912 5.20312 9.00409 5.20312C8.25663 5.20312 7.51874 5.33514 6.8244 5.58657V4.57031C6.8244 3.36843 7.8022 2.39062 9.00409 2.39062C10.206 2.39062 11.1838 3.36843 11.1838 4.57031V5.58566ZM12.8713 6.50763C12.5637 6.27353 12.2344 6.06656 11.8869 5.89043V4.57031C11.8869 2.98072 10.5937 1.6875 9.00409 1.6875C7.4145 1.6875 6.12128 2.98072 6.12128 4.57031V5.8899C5.77643 6.06371 5.44666 6.26889 5.1369 6.50391V4.57031C5.1369 2.43795 6.87172 0.703125 9.00409 0.703125C11.1365 0.703125 12.8713 2.43795 12.8713 4.57031V6.50763Z" fill="#C3C3C3"/>
<path d="M13.7526 11.353C13.6873 11.2876 13.5966 11.25 13.5041 11.25C13.4116 11.25 13.3209 11.2876 13.2555 11.353C13.1901 11.4184 13.1525 11.5091 13.1525 11.6016C13.1525 11.694 13.1901 11.7847 13.2555 11.8501C13.3209 11.9155 13.4116 11.9531 13.5041 11.9531C13.5966 11.9531 13.6873 11.9155 13.7526 11.8501C13.818 11.7847 13.8557 11.694 13.8557 11.6016C13.8557 11.5091 13.818 11.4184 13.7526 11.353Z" fill="#C3C3C3"/>
<path d="M13.7261 10.4833C13.4793 9.43766 12.8792 8.48971 12.0363 7.81407C11.1802 7.12789 10.1034 6.75 9.00409 6.75C8.80992 6.75 8.65253 6.90743 8.65253 7.10156C8.65253 7.2957 8.80992 7.45312 9.00409 7.45312C10.9379 7.45312 12.5982 8.76558 13.0417 10.6448C13.0799 10.8066 13.2242 10.9157 13.3836 10.9157C13.4103 10.9157 13.4375 10.9126 13.4646 10.9062C13.6536 10.8616 13.7706 10.6722 13.7261 10.4833Z" fill="#C3C3C3"/>
<path d="M2.96552 11.25H2.94904C2.75487 11.25 2.59747 11.4074 2.59747 11.6016C2.59747 11.7957 2.75487 11.9531 2.94904 11.9531H2.96552C3.15969 11.9531 3.31709 11.7957 3.31709 11.6016C3.31709 11.4074 3.15969 11.25 2.96552 11.25Z" fill="#C3C3C3"/>
</svg>
